<svg t="1699594314672" class="icon" viewBox="0 0 1024 1024" version="1.1" xmlns="http://www.w3.org/2000/svg" p-id="5071" width="500" height="500"><path d="M874.1 98.2c14.8 0 27.2 4.8 37 14.7 9.8 9.9 14.7 22.2 14.7 37 0 14.5-5 26.8-14.9 36.7L585.1 512l325.8 325.3c9.9 9.9 14.9 22.2 14.9 36.8 0 14.7-5 27.1-14.7 36.9-9.8 9.9-22.2 14.8-37 14.8-14.6 0-26.8-5.1-36.8-15.1L512 585.1 186.7 910.7c-9.9 10-22.2 15.1-36.8 15.1-14.8 0-27.1-4.9-37-14.8-9.8-9.8-14.7-22.2-14.7-36.9 0-14.6 5-26.9 14.9-36.8L438.9 512 113.1 186.6c-9.9-9.9-14.9-22.2-14.9-36.7 0-14.8 4.9-27.1 14.7-37 9.9-9.9 22.2-14.7 37-14.7 14.6 0 26.8 4.9 36.8 14.9L512 438.8l325.3-325.6c10-10.1 22.2-15 36.8-15" p-id="5072" fill="#f5f5f5"></path></svg>
