<svg t="1699531763025" class="icon" viewBox="0 0 1024 1024" version="1.1" xmlns="http://www.w3.org/2000/svg" p-id="4029" width="500" height="500"><path d="M734.2 320.1H289.8c-17.6 0-32 14.4-32 32s14.4 32 32 32h444.5c17.6 0 32-14.4 32-32-0.1-17.6-14.5-32-32.1-32zM734.2 639.9H289.8c-17.6 0-32 14.4-32 32s14.4 32 32 32h444.5c17.6 0 32-14.4 32-32-0.1-17.6-14.5-32-32.1-32zM734.2 480H289.8c-17.6 0-32 14.4-32 32s14.4 32 32 32h444.5c17.6 0 32-14.4 32-32-0.1-17.6-14.5-32-32.1-32z" p-id="4030" fill="#666666"></path></svg>
